<svg aria-hidden="true" style="position: absolute; width: 0; height: 0; overflow: hidden;" version="1.1" xmlns="http://www.w3.org/2000/svg" xmlns:xlink="http://www.w3.org/1999/xlink">
<defs>
<symbol id="icon-hero-star" viewBox="0 0 32 32">
<path fill="#bea69e" style="fill: var(--color1, #bea69e)" d="M16 0c8.837 0 16 7.163 16 16s-7.163 16-16 16c-8.837 0-16-7.163-16-16s7.163-16 16-16z"></path>
<path fill="none" stroke="#121212" style="stroke: var(--color2, #121212)" stroke-linejoin="round" stroke-linecap="round" stroke-miterlimit="4" stroke-width="0.96" d="M16 10.667l1.648 3.339 3.685 0.539-2.667 2.597 0.629 3.669-3.296-1.733-3.296 1.733 0.629-3.669-2.667-2.597 3.685-0.539 1.648-3.339z"></path>
</symbol>
<symbol id="icon-review-star-empty" viewBox="0 0 32 32">
<path fill="#fff" style="fill: var(--color3, #fff)" opacity="0.2" stroke-linejoin="round" stroke-linecap="round" stroke-miterlimit="4" stroke-width="1.7778" stroke="#000" d="M16 2.667l4.395 8.777 9.828 1.416-7.111 6.828 1.678 9.646-8.789-4.557-8.789 4.557 1.678-9.646-7.111-6.828 9.828-1.416 4.395-8.777z"></path>
</symbol>
<symbol id="icon-review-star-full" viewBox="0 0 32 32">
<path fill="#bea69e" style="fill: var(--color1, #bea69e); stroke: var(--color1, #bea69e)" stroke="#bea69e" stroke-linejoin="round" stroke-linecap="round" stroke-miterlimit="4" stroke-width="2.6667" d="M16 2.667l4.395 8.777 9.828 1.416-7.111 6.828 1.678 9.646-8.789-4.557-8.789 4.557 1.678-9.646-7.111-6.828 9.828-1.416 4.395-8.777z"></path>
</symbol>
<symbol id="icon-right-arrow" viewBox="0 0 32 32">
<path fill="#fff" style="fill: var(--color3, #fff)" d="M22.222 8l9.778 7.698-9.778 7.698v-6.365h-22.222v-2.667h22.222v-6.365z"></path>
</symbol>
<symbol id="icon-upright-arrow" viewBox="0 0 32 32">
<path d="M32 16c0 8.837-7.163 16-16 16s-16-7.163-16-16c0-8.837 7.163-16 16-16s16 7.163 16 16z"></path>
<path fill="none" stroke="#777" style="stroke: var(--color4, #777)" stroke-linejoin="round" stroke-linecap="round" stroke-miterlimit="4" stroke-width="1.3" d="M11 21l10-10"></path>
<path fill="none" stroke="#777" style="stroke: var(--color4, #777)" stroke-linejoin="round" stroke-linecap="round" stroke-miterlimit="4" stroke-width="1.3" d="M14.333 11h6.667v6.667"></path>
</symbol>
</defs>
</svg>
